# WaveFront *.obj file (generated by Cinema 4D)

v -0.469074 -0.432931 0.469074
v -0.460540 -0.362052 0.460540
v 0.469074 -0.432931 0.469074
v 0.460540 -0.362052 0.460540
v 0.469074 -0.432931 -0.469074
v 0.460540 -0.362052 -0.460540
v -0.469074 -0.432931 -0.469074
v -0.460540 -0.362052 -0.460540
v -0.465285 -0.339448 -0.465285
v -0.465285 -0.339448 0.465285
v 0.465285 -0.339448 0.465285
v 0.465285 -0.339448 -0.465285
v -0.474200 -0.336900 -0.474200
v 0.474200 -0.336900 -0.474200
v 0.474200 -0.336900 0.474200
v -0.474200 -0.336900 0.474200
v -0.500000 -0.388839 -0.500000
v 0.500000 -0.388839 -0.500000
v 0.500000 -0.388839 0.500000
v -0.500000 -0.388839 0.500000
v -0.500000 -0.480752 -0.500000
v -0.500000 -0.480752 0.500000
v 0.500000 -0.480752 0.500000
v 0.500000 -0.480752 -0.500000
v -0.469074 -0.432931 0.469074
v -0.500000 -0.480752 0.500000
v 0.500000 -0.480752 0.500000
v 0.469074 -0.432931 0.469074
v 0.500000 -0.480752 0.500000
v 0.500000 -0.480752 -0.500000
v 0.469074 -0.432931 -0.469074
v -0.500000 -0.480752 -0.500000
v 0.500000 -0.480752 -0.500000
v -0.469074 -0.432931 -0.469074
v -0.500000 -0.480752 -0.500000
v -0.500000 -0.480752 0.500000
v -0.469074 -0.432931 0.469074
v -0.460540 -0.362052 0.460540
v -0.469074 -0.432931 -0.469074
v 0.469074 -0.432931 -0.469074
v -0.469074 -0.432931 -0.469074
v -0.460540 -0.362052 -0.460540
v -0.460540 -0.362052 0.460540
v -0.460540 -0.362052 -0.460540
v -0.465285 -0.339448 -0.465285
v -0.460540 -0.362052 0.460540
v 0.460540 -0.362052 0.460540
v -0.465285 -0.339448 0.465285
v 0.460540 -0.362052 0.460540
v 0.460540 -0.362052 -0.460540
v 0.465285 -0.339448 0.465285
v 0.460540 -0.362052 -0.460540
v -0.460540 -0.362052 -0.460540
v 0.465285 -0.339448 -0.465285
v -0.465285 -0.339448 -0.465285
v 0.465285 -0.339448 -0.465285
v 0.474200 -0.336900 -0.474200
v 0.465285 -0.339448 0.465285
v 0.465285 -0.339448 -0.465285
v 0.474200 -0.336900 0.474200
v -0.465285 -0.339448 0.465285
v 0.465285 -0.339448 0.465285
v -0.474200 -0.336900 0.474200
v -0.465285 -0.339448 -0.465285
v -0.465285 -0.339448 0.465285
v -0.474200 -0.336900 -0.474200
v -0.474200 -0.336900 -0.474200
v 0.474200 -0.336900 -0.474200
v 0.500000 -0.388839 -0.500000
v 0.474200 -0.336900 -0.474200
v 0.474200 -0.336900 0.474200
v 0.500000 -0.388839 0.500000
v 0.474200 -0.336900 0.474200
v -0.474200 -0.336900 0.474200
v -0.500000 -0.388839 0.500000
v -0.474200 -0.336900 -0.474200
v -0.474200 -0.336900 0.474200
v -0.500000 -0.388839 -0.500000
v -0.500000 -0.388839 -0.500000
v -0.500000 -0.388839 0.500000
v -0.500000 -0.480752 -0.500000
v 0.500000 -0.388839 0.500000
v -0.500000 -0.388839 0.500000
v -0.500000 -0.480752 0.500000
v 0.500000 -0.388839 -0.500000
v 0.500000 -0.388839 0.500000
v 0.500000 -0.480752 0.500000
v -0.500000 -0.388839 -0.500000
v 0.500000 -0.388839 -0.500000
v 0.500000 -0.480752 -0.500000
v -0.469074 -0.432931 0.469074
v 0.469074 -0.432931 0.469074
v 0.460540 -0.362052 0.460540
v 0.469074 -0.432931 0.469074
v 0.469074 -0.432931 -0.469074
v 0.460540 -0.362052 -0.460540
v -0.469074 -0.432931 0.469074
v 0.469074 -0.432931 0.469074
v 0.500000 -0.480752 0.500000
v 0.469074 -0.432931 0.469074
v 0.469074 -0.432931 -0.469074
v 0.500000 -0.480752 -0.500000
v 0.469074 -0.432931 -0.469074
v -0.469074 -0.432931 -0.469074
v -0.500000 -0.480752 -0.500000
v -0.469074 -0.432931 0.469074
v -0.469074 -0.432931 -0.469074
v -0.500000 -0.480752 0.500000
v -0.460540 -0.362052 0.460540
v -0.460540 -0.362052 -0.460540
v 0.460540 -0.362052 -0.460540
v -0.460540 -0.362052 -0.460540
v -0.460540 -0.362052 0.460540
v -0.465285 -0.339448 -0.465285
v -0.465285 -0.339448 0.465285
v 0.460540 -0.362052 0.460540
v -0.465285 -0.339448 0.465285
v 0.465285 -0.339448 0.465285
v 0.460540 -0.362052 -0.460540
v 0.465285 -0.339448 0.465285
v 0.465285 -0.339448 -0.465285
v -0.465285 -0.339448 -0.465285
v 0.465285 -0.339448 -0.465285
v -0.474200 -0.336900 -0.474200
v 0.474200 -0.336900 -0.474200
v 0.474200 -0.336900 -0.474200
v 0.474200 -0.336900 0.474200
v 0.474200 -0.336900 0.474200
v -0.474200 -0.336900 0.474200
v -0.474200 -0.336900 -0.474200
v -0.474200 -0.336900 0.474200
v -0.500000 -0.388839 -0.500000
v 0.500000 -0.388839 -0.500000
v 0.500000 -0.388839 -0.500000
v 0.500000 -0.388839 0.500000
v 0.500000 -0.388839 0.500000
v -0.500000 -0.388839 0.500000
v -0.500000 -0.388839 -0.500000
v -0.500000 -0.388839 0.500000
v -0.500000 -0.480752 -0.500000
v -0.500000 -0.480752 0.500000
v 0.500000 -0.480752 0.500000
v 0.500000 -0.480752 -0.500000
v 0.460540 -0.362052 0.460540
# 144 vertices

vn 0.000000 -0.543050 -0.839700
vn -0.839700 -0.543050 0.000000
vn 0.000000 -0.543050 0.839700
vn 0.839700 -0.543050 0.000000
vn 0.992830 -0.119532 0.000000
vn 0.000000 -0.119532 0.992830
vn 0.978669 0.205442 0.000000
vn 0.000000 0.205442 -0.978669
vn -0.978669 0.205442 0.000000
vn 0.000000 0.205442 0.978669
vn 0.000000 0.961490 0.274841
vn -0.274841 0.961490 0.000000
vn 0.000000 0.961490 -0.274841
vn 0.274841 0.961490 0.000000
vn 0.000000 0.444875 -0.895593
vn 0.895593 0.444875 0.000000
vn 0.000000 0.444875 0.895593
vn -0.895593 0.444875 0.000000
vn -1.000000 0.000000 0.000000
vn 0.000000 0.000000 1.000000
vn 1.000000 0.000000 0.000000
vn 0.000000 0.000000 -1.000000
vn 0.000000 -0.119532 -0.992830
vn -0.992830 -0.119532 0.000000
vn 0.000000 -0.543050 0.839700
vn 0.992830 -0.119532 0.000000
vn 0.000000 -0.119532 0.992830
vn 0.000000 0.205442 -0.978669
vn 0.000000 0.961490 0.274841
vn -0.274841 0.961490 0.000000
vn 0.000000 0.961490 -0.274841
vn 0.274841 0.961490 0.000000
vn 0.000000 0.444875 -0.895592
vn 0.895592 0.444875 0.000000
vn 0.000000 0.444875 0.895592
vn -0.895592 0.444875 0.000000
vn 0.000000 0.000000 -1.000000
vn 0.000000 -0.119532 -0.992830
vn -0.992830 -0.119532 0.000000
# 39 normals

vt 0.734537 0.716466 0.000000
vt 0.750000 0.740376 0.000000
vt 0.250000 0.740376 0.000000
vt 0.000000 0.000000 0.000000
vt 0.265463 0.716466 0.000000
vt 0.269730 0.681026 0.000000
vt 0.732643 0.669724 0.000000
vt 0.730270 0.681026 0.000000
vt 0.737100 0.262900 0.000000
vt 0.732643 0.267357 0.000000
vt 0.267357 0.267357 0.000000
vt 0.737100 0.737100 0.000000
vt 0.732643 0.732643 0.000000
vt 0.262900 0.737100 0.000000
vt 0.267357 0.732643 0.000000
vt 0.262900 0.262900 0.000000
vt 0.250000 0.694419 0.000000
vt 0.262900 0.668450 0.000000
vt 0.737100 0.668450 0.000000
vt 0.750000 0.694419 0.000000
vt 0.267357 0.669724 0.000000
# 21 texture coordinates

o Cube
usemtl Mat
f 27/3/1 26/2/1 25/1/1
f 30/3/2 29/2/2 28/1/2
f 32/3/3 33/2/3 31/1/3
f 36/3/4 35/2/4 34/1/4
f 38/6/5 37/5/5 39/1/5
f 42/6/6 41/5/6 40/1/6
f 43/6/7 44/8/7 45/7/7
f 47/6/8 46/8/8 48/7/8
f 50/6/9 49/8/9 51/7/9
f 53/6/10 52/8/10 54/7/10
f 55/11/11 56/10/11 57/9/11
f 59/10/12 58/13/12 60/12/12
f 62/13/13 61/15/13 63/14/13
f 65/15/14 64/11/14 66/16/14
f 67/19/15 68/18/15 69/17/15
f 70/19/16 71/18/16 72/17/16
f 73/19/17 74/18/17 75/17/17
f 77/19/18 76/18/18 78/17/18
f 80/20/19 79/17/19 81/3/19
f 82/20/20 83/17/20 84/3/20
f 85/20/21 86/17/21 87/3/21
f 88/20/22 89/17/22 90/3/22
f 93/6/23 92/5/23 91/1/23
f 96/6/24 95/5/24 94/1/24
f 98/5/1 99/3/1 97/1/1
f 101/5/2 102/3/2 100/1/2
f 104/5/25 105/3/25 103/1/25
f 106/5/4 108/3/4 107/1/4
f 110/8/26 109/6/26 7/1/26
f 111/8/27 112/6/27 5/1/27
f 115/21/7 113/6/7 114/7/7
f 118/21/28 116/6/28 117/7/28
f 121/21/9 119/6/9 120/7/9
f 122/21/10 8/6/10 123/7/10
f 124/16/29 9/11/29 125/9/29
f 126/9/30 12/10/30 127/12/30
f 128/12/31 11/13/31 129/14/31
f 131/14/32 10/15/32 130/16/32
f 132/20/33 13/19/33 133/17/33
f 134/20/34 14/19/34 135/17/34
f 136/20/35 15/19/35 137/17/35
f 139/20/36 16/19/36 138/17/36
f 141/2/19 20/20/19 140/3/19
f 142/2/20 19/20/20 22/3/20
f 143/2/21 18/20/21 23/3/21
f 21/2/37 17/20/37 24/3/37
f 2/8/38 144/6/38 1/1/38
f 4/8/39 6/6/39 3/1/39

