<?xml version="1.0" encoding="UTF-8" standalone="no"?>
<!DOCTYPE svg PUBLIC "-//W3C//DTD SVG 1.1//EN" "http://www.w3.org/Graphics/SVG/1.1/DTD/svg11.dtd">
<svg width="100%" height="100%" viewBox="0 0 186 130" version="1.1" xmlns="http://www.w3.org/2000/svg" xmlns:xlink="http://www.w3.org/1999/xlink" xml:space="preserve" xmlns:serif="http://www.serif.com/" style="fill-rule:evenodd;clip-rule:evenodd;stroke-linejoin:round;stroke-miterlimit:2;">
    <g id="drill-1x1" serif:id="drill 1x1" transform="matrix(1,0,0,1,-200.621,-230.376)">
        <g transform="matrix(0.192484,0,0,0.192484,290.785,339.014)">
            <rect x="-70.86" y="-99.453" width="206.133" height="206.133"/>
        </g>
        <g transform="matrix(0.192484,0,0,0.192484,246.684,339.014)">
            <rect x="-70.86" y="-99.453" width="206.133" height="206.133"/>
        </g>
        <g transform="matrix(0.192484,0,0,0.192484,334.297,339.014)">
            <rect x="-70.86" y="-99.453" width="206.133" height="206.133"/>
        </g>
        <g transform="matrix(6.12323e-17,-1,1,6.12323e-17,232.398,391.325)">
            <path d="M76.525,44.747L76.525,84.425L86.444,84.425L86.444,64.586L86.444,74.505L96.363,74.505L96.363,44.747L76.525,44.747ZM116.202,64.586L106.283,64.586L106.283,74.505L116.202,74.505L116.202,64.586ZM116.202,44.747L96.363,44.747L96.363,54.667L116.202,54.667L116.202,44.747Z"/>
        </g>
        <g transform="matrix(-1,-1.22465e-16,1.22465e-16,-1,393.347,314.8)">
            <path d="M76.525,44.747L76.525,84.425L86.444,84.425L86.444,64.586L86.444,74.505L96.363,74.505L96.363,44.747L76.525,44.747ZM116.202,64.586L106.283,64.586L106.283,74.505L116.202,74.505L116.202,64.586ZM116.202,44.747L96.363,44.747L96.363,54.667L116.202,54.667L116.202,44.747Z"/>
        </g>
        <g transform="matrix(0.192484,0,0,0.192484,246.684,249.519)">
            <rect x="-70.86" y="-99.453" width="206.133" height="206.133"/>
        </g>
        <g transform="matrix(0.192484,0,0,0.192484,334.297,249.519)">
            <rect x="-70.86" y="-99.453" width="206.133" height="206.133"/>
        </g>
        <g transform="matrix(0.192484,0,0,0.192484,246.684,294.266)">
            <rect x="-70.86" y="-99.453" width="206.133" height="206.133"/>
        </g>
        <g transform="matrix(0.192484,0,0,0.192484,334.297,294.266)">
            <rect x="-70.86" y="-99.453" width="206.133" height="206.133"/>
        </g>
    </g>
</svg>
