<?xml version="1.0" encoding="UTF-8" standalone="no"?>
<!DOCTYPE svg PUBLIC "-//W3C//DTD SVG 1.1//EN" "http://www.w3.org/Graphics/SVG/1.1/DTD/svg11.dtd">
<svg width="100%" height="100%" viewBox="0 0 186 130" version="1.1" xmlns="http://www.w3.org/2000/svg" xmlns:xlink="http://www.w3.org/1999/xlink" xml:space="preserve" xmlns:serif="http://www.serif.com/" style="fill-rule:evenodd;clip-rule:evenodd;stroke-linejoin:round;stroke-miterlimit:2;">
    <g transform="matrix(3.00521,0,0,3.00521,0.63102,5.50637)">
        <path d="M49.731,0.723L11.792,0.723L11.792,38.661L49.731,38.661L49.731,0.723ZM48.928,1.525L48.928,37.858C48.928,37.858 12.595,37.858 12.595,37.858C12.595,37.858 12.595,1.525 12.595,1.525L48.928,1.525Z"/>
    </g>
    <g transform="matrix(0.790751,0,0,0.790751,30.713,11.0759)">
        <rect x="11.792" y="0.723" width="37.939" height="37.939"/>
    </g>
    <g transform="matrix(0.790751,0,0,0.790751,68.6516,11.0759)">
        <rect x="11.792" y="0.723" width="37.939" height="37.939"/>
    </g>
    <g transform="matrix(0.790751,0,0,0.790751,106.59,11.0759)">
        <rect x="11.792" y="0.723" width="37.939" height="37.939"/>
    </g>
    <g transform="matrix(0.790751,0,0,0.790751,30.713,49.0146)">
        <rect x="11.792" y="0.723" width="37.939" height="37.939"/>
    </g>
    <g transform="matrix(0.790751,0,0,0.790751,68.6516,49.0146)">
        <rect x="11.792" y="0.723" width="37.939" height="37.939"/>
    </g>
    <g transform="matrix(0.790751,0,0,0.790751,106.59,49.0146)">
        <rect x="11.792" y="0.723" width="37.939" height="37.939"/>
    </g>
    <g transform="matrix(0.790751,0,0,0.790751,30.713,86.9532)">
        <rect x="11.792" y="0.723" width="37.939" height="37.939"/>
    </g>
    <g transform="matrix(0.790751,0,0,0.790751,68.6516,86.9532)">
        <rect x="11.792" y="0.723" width="37.939" height="37.939"/>
    </g>
    <g transform="matrix(0.790751,0,0,0.790751,106.59,86.9532)">
        <rect x="11.792" y="0.723" width="37.939" height="37.939"/>
    </g>
</svg>
