<?xml version="1.0" encoding="UTF-8" standalone="no"?>
<!DOCTYPE svg PUBLIC "-//W3C//DTD SVG 1.1//EN" "http://www.w3.org/Graphics/SVG/1.1/DTD/svg11.dtd">
<svg width="100%" height="100%" viewBox="0 0 186 130" version="1.1" xmlns="http://www.w3.org/2000/svg" xmlns:xlink="http://www.w3.org/1999/xlink" xml:space="preserve" xmlns:serif="http://www.serif.com/" style="fill-rule:evenodd;clip-rule:evenodd;stroke-linejoin:round;stroke-miterlimit:2;">
    <g transform="matrix(1,0,0,1,62.2148,44.894)">
        <rect x="11.792" y="0.723" width="37.939" height="37.939"/>
    </g>
    <g transform="matrix(1,0,0,1,100.153,6.95542)">
        <rect x="11.792" y="0.723" width="37.939" height="37.939"/>
    </g>
    <g transform="matrix(1,0,0,1,24.2762,82.8327)">
        <rect x="11.792" y="0.723" width="37.939" height="37.939"/>
    </g>
    <g transform="matrix(1,0,0,1,100.153,82.8327)">
        <rect x="11.792" y="0.723" width="37.939" height="37.939"/>
    </g>
    <g transform="matrix(1,0,0,1,24.2762,6.95542)">
        <rect x="11.792" y="0.723" width="37.939" height="37.939"/>
    </g>
    <g transform="matrix(1,0,0,1,100.153,44.894)">
        <path d="M49.731,0.723L11.792,0.723L11.792,38.661L49.731,38.661L49.731,0.723ZM47.318,3.135L47.318,36.249C47.318,36.249 14.204,36.249 14.204,36.249C14.204,36.249 14.204,3.135 14.204,3.135L47.318,3.135Z"/>
    </g>
    <g transform="matrix(1,0,0,1,62.2148,6.95542)">
        <path d="M49.731,0.723L11.792,0.723L11.792,38.661L49.731,38.661L49.731,0.723ZM47.318,3.135L47.318,36.249C47.318,36.249 14.204,36.249 14.204,36.249C14.204,36.249 14.204,3.135 14.204,3.135L47.318,3.135Z"/>
    </g>
    <g transform="matrix(1,0,0,1,24.2762,44.894)">
        <path d="M49.731,0.723L11.792,0.723L11.792,38.661L49.731,38.661L49.731,0.723ZM47.318,3.135L47.318,36.249C47.318,36.249 14.204,36.249 14.204,36.249C14.204,36.249 14.204,3.135 14.204,3.135L47.318,3.135Z"/>
    </g>
    <g transform="matrix(1,0,0,1,62.2148,82.8327)">
        <path d="M49.731,0.723L11.792,0.723L11.792,38.661L49.731,38.661L49.731,0.723ZM47.318,3.135L47.318,36.249C47.318,36.249 14.204,36.249 14.204,36.249C14.204,36.249 14.204,3.135 14.204,3.135L47.318,3.135Z"/>
    </g>
</svg>
