<?xml version="1.0" encoding="UTF-8" standalone="no"?>
<!DOCTYPE svg PUBLIC "-//W3C//DTD SVG 1.1//EN" "http://www.w3.org/Graphics/SVG/1.1/DTD/svg11.dtd">
<svg width="100%" height="100%" viewBox="0 0 186 130" version="1.1" xmlns="http://www.w3.org/2000/svg" xmlns:xlink="http://www.w3.org/1999/xlink" xml:space="preserve" xmlns:serif="http://www.serif.com/" style="fill-rule:evenodd;clip-rule:evenodd;stroke-linejoin:round;stroke-miterlimit:2;">
    <g id="drill-3x3" serif:id="drill 3x3" transform="matrix(1,0,0,1,-200.621,-230.376)">
        <g transform="matrix(-6.12323e-17,-1,-1,6.12323e-17,406.317,436.072)">
            <path d="M76.525,44.747L76.525,84.425L86.444,84.425L86.444,64.586L86.444,74.505L96.363,74.505L96.363,44.747L76.525,44.747ZM116.202,64.586L106.283,64.586L106.283,74.505L116.202,74.505L116.202,64.586ZM116.202,44.747L96.363,44.747L96.363,54.667L116.202,54.667L116.202,44.747Z"/>
        </g>
        <g transform="matrix(6.12323e-17,1,1,-6.12323e-17,188.297,153.851)">
            <path d="M76.525,44.747L76.525,84.425L86.444,84.425L86.444,64.586L86.444,74.505L96.363,74.505L96.363,44.747L76.525,44.747ZM116.202,64.586L106.283,64.586L106.283,74.505L116.202,74.505L116.202,64.586ZM116.202,44.747L96.363,44.747L96.363,54.667L116.202,54.667L116.202,44.747Z"/>
        </g>
        <g transform="matrix(-1,-1.22465e-16,1.22465e-16,-1,393.347,404.295)">
            <path d="M76.525,44.747L76.525,84.425L86.444,84.425L86.444,64.586L86.444,74.505L96.363,74.505L96.363,44.747L76.525,44.747ZM116.202,64.586L106.283,64.586L106.283,74.505L116.202,74.505L116.202,64.586ZM116.202,44.747L96.363,44.747L96.363,54.667L116.202,54.667L116.202,44.747Z"/>
        </g>
        <g transform="matrix(1,0,0,-1,156.52,359.548)">
            <path d="M76.525,44.747L76.525,84.425L86.444,84.425L86.444,64.586L86.444,74.505L96.363,74.505L96.363,44.747L76.525,44.747ZM116.202,64.586L106.283,64.586L106.283,74.505L116.202,74.505L116.202,64.586ZM116.202,44.747L96.363,44.747L96.363,54.667L116.202,54.667L116.202,44.747Z"/>
        </g>
        <g transform="matrix(-1,0,-0,1,438.095,185.628)">
            <path d="M76.525,44.747L76.525,84.425L86.444,84.425L86.444,64.586L86.444,74.505L96.363,74.505L96.363,44.747L76.525,44.747ZM116.202,64.586L106.283,64.586L106.283,74.505L116.202,74.505L116.202,64.586ZM116.202,44.747L96.363,44.747L96.363,54.667L116.202,54.667L116.202,44.747Z"/>
        </g>
        <g transform="matrix(1,0,0,1,156.52,275.123)">
            <path d="M76.525,44.747L76.525,84.425L86.444,84.425L86.444,64.586L86.444,74.505L96.363,74.505L96.363,44.747L76.525,44.747ZM116.202,64.586L106.283,64.586L106.283,74.505L116.202,74.505L116.202,64.586ZM116.202,44.747L96.363,44.747L96.363,54.667L116.202,54.667L116.202,44.747Z"/>
        </g>
        <g transform="matrix(-1,-1.22465e-16,1.22465e-16,-1,393.347,314.8)">
            <path d="M76.525,44.747L76.525,84.425L86.444,84.425L86.444,64.586L86.444,74.505L96.363,74.505L96.363,44.747L76.525,44.747ZM116.202,64.586L106.283,64.586L106.283,74.505L116.202,74.505L116.202,64.586ZM116.202,44.747L96.363,44.747L96.363,54.667L116.202,54.667L116.202,44.747Z"/>
        </g>
        <g transform="matrix(-1,-1.22465e-16,1.22465e-16,-1,437.383,359.548)">
            <path d="M76.525,44.747L76.525,84.425L86.444,84.425L86.444,64.586L86.444,74.505L96.363,74.505L96.363,44.747L76.525,44.747ZM116.202,64.586L106.283,64.586L106.283,74.505L116.202,74.505L116.202,64.586ZM116.202,44.747L96.363,44.747L96.363,54.667L116.202,54.667L116.202,44.747Z"/>
        </g>
    </g>
</svg>
