<?xml version="1.0" encoding="UTF-8" standalone="no"?>
<!DOCTYPE svg PUBLIC "-//W3C//DTD SVG 1.1//EN" "http://www.w3.org/Graphics/SVG/1.1/DTD/svg11.dtd">
<svg width="100%" height="100%" viewBox="0 0 186 130" version="1.1" xmlns="http://www.w3.org/2000/svg" xmlns:xlink="http://www.w3.org/1999/xlink" xml:space="preserve" xmlns:serif="http://www.serif.com/" style="fill-rule:evenodd;clip-rule:evenodd;stroke-linejoin:round;stroke-miterlimit:2;">
    <g transform="matrix(1,0,0,1,2.52924,0.327954)">
        <g id="Flip">
            <g>
                <g id="Square" transform="matrix(1.99991,1.72563e-31,-2.46519e-32,1.99991,-640.521,-94.6192)">
                    <path d="M378,50.519L378,57.968C378,58.806 377.32,59.487 376.481,59.487L364.43,59.487C364.443,59.487 364.452,59.477 364.452,59.465L364.452,71.481C364.452,72.32 363.772,73 362.933,73L355.519,73C354.68,73 354,72.32 354,71.481L354,50.519C354,49.68 354.68,49 355.519,49L376.481,49C377.32,49 378,49.68 378,50.519ZM366,62.086C366,61.486 366.485,61 367.086,61L376.914,61C377.514,61 378,61.485 378,62.086L378,70.827C378,72.027 377.018,73 375.827,73L367.086,73C366.486,73 366,72.515 366,71.914L366,62.086Z" style="fill-rule:nonzero;"/>
                </g>
                <g id="Square1" serif:id="Square" transform="matrix(1.99991,-1.72563e-31,-2.46519e-32,-1.99991,-642.519,223.135)">
                    <path d="M378,50.519L378,57.968C378,58.806 377.32,59.487 376.481,59.487L364.43,59.487C364.443,59.487 364.452,59.477 364.452,59.465L364.452,71.481C364.452,72.32 363.772,73 362.933,73L355.519,73C354.68,73 354,72.32 354,71.481L354,50.519C354,49.68 354.68,49 355.519,49L376.481,49C377.32,49 378,49.68 378,50.519ZM366,62.086C366,61.486 366.485,61 367.086,61L376.914,61C377.514,61 378,61.485 378,62.086L378,70.827C378,72.027 377.018,73 375.827,73L367.086,73C366.486,73 366,72.515 366,71.914L366,62.086Z" style="fill-rule:nonzero;"/>
                </g>
                <g id="Play" transform="matrix(4.57078e-17,0.746464,-0.746464,4.57078e-17,300.697,-119.044)">
                    <path d="M236,284.2C236,283.265 237.064,282.69 237.894,283.177L255.404,293.479C256.198,293.945 256.198,295.055 255.404,295.522C252.694,297.117 250.661,298.312 249.306,299.11C246.77,300.601 242.966,302.839 237.894,305.823C237.064,306.31 236,305.736 236,304.801L236,284.2Z"/>
                </g>
                <g id="Play1" serif:id="Play" transform="matrix(4.57078e-17,-0.746464,0.746464,4.57078e-17,-119.804,248.216)">
                    <path d="M236,284.2C236,283.265 237.064,282.69 237.894,283.177L255.404,293.479C256.198,293.945 256.198,295.055 255.404,295.522C252.694,297.117 250.661,298.312 249.306,299.11C246.77,300.601 242.966,302.839 237.894,305.823C237.064,306.31 236,305.736 236,304.801L236,284.2Z"/>
                </g>
            </g>
        </g>
    </g>
</svg>
