<?xml version="1.0" encoding="UTF-8" standalone="no"?>
<!DOCTYPE svg PUBLIC "-//W3C//DTD SVG 1.1//EN" "http://www.w3.org/Graphics/SVG/1.1/DTD/svg11.dtd">
<svg width="100%" height="100%" viewBox="0 0 186 130" version="1.1" xmlns="http://www.w3.org/2000/svg" xmlns:xlink="http://www.w3.org/1999/xlink" xml:space="preserve" xmlns:serif="http://www.serif.com/" style="fill-rule:evenodd;clip-rule:evenodd;stroke-linejoin:round;stroke-miterlimit:2;">
    <g transform="matrix(1.19309,0,0,1.19309,-3.13996,2.21586)">
        <g id="Layer1">
            <path d="M62.055,58.515C61.751,58.649 61.46,58.827 61.191,59.05L24.247,89.676C22.688,90.968 22.471,93.284 23.764,94.843L28.448,100.493C29.74,102.052 32.056,102.269 33.615,100.976L70.559,70.35C70.828,70.128 71.056,69.875 71.244,69.601L86.466,87.963L111.919,66.864L72.285,19.054L46.833,40.153L62.055,58.515ZM122.055,58.461C122.133,58.451 122.213,58.439 122.294,58.424C124.899,57.971 128.428,55.956 130.876,53.802C129.159,57.459 125.013,66.756 125.013,71.275C125.013,74.914 127.968,77.869 131.607,77.869C135.247,77.869 138.202,74.914 138.202,71.275C138.202,66.278 133.133,55.44 131.884,52.844C132.816,51.877 133.473,50.925 133.675,50.114C134.398,47.224 99.531,5.31 99.531,5.31C99.531,5.31 95.944,4.272 93.273,5.471L93.848,4.993L91.974,2.732L72.919,18.528L112.553,66.338L122.055,58.461ZM116.873,56.552L112.008,60.585L113.182,62.002L118.494,57.598C117.985,57.29 117.463,56.928 116.873,56.552ZM110.84,54.194L108.392,56.224L109.566,57.64L113.068,54.737C112.405,54.527 111.668,54.342 110.84,54.194ZM105.012,51.816L104.85,51.951L106.024,53.368L106.529,52.949C105.942,52.623 105.447,52.243 105.012,51.816ZM101.787,46.53L100.939,47.233L102.113,48.65L102.637,48.216C102.365,47.678 102.089,47.114 101.787,46.53ZM98.657,41.616L97.249,42.782L98.424,44.199L99.739,43.109C99.559,42.856 99.369,42.602 99.169,42.346C98.982,42.106 98.811,41.862 98.657,41.616ZM97.439,35.266L93.634,38.421L94.808,39.837L97.395,37.693C97.33,36.894 97.354,36.082 97.439,35.266ZM99.348,26.541L90.124,34.187L91.298,35.604L98.668,29.494C98.932,28.478 99.18,27.488 99.348,26.541ZM98.389,20.604L86.816,30.197L87.991,31.613L99.231,22.295C99.029,21.733 98.739,21.169 98.389,20.604ZM95.227,16.616L83.569,26.28L84.744,27.697L96.437,18.003C96.045,17.54 95.637,17.077 95.227,16.616ZM91.924,12.596L80.249,22.274L81.423,23.691L93.026,14.073C92.624,13.577 92.25,13.084 91.924,12.596ZM91.353,7.062L77.297,18.714L78.472,20.13L90.719,9.978C90.585,9.311 90.614,8.657 90.859,8.02C90.996,7.664 91.162,7.346 91.353,7.062Z"/>
        </g>
    </g>
</svg>
