<?xml version="1.0" encoding="UTF-8" standalone="no"?>
<!DOCTYPE svg PUBLIC "-//W3C//DTD SVG 1.1//EN" "http://www.w3.org/Graphics/SVG/1.1/DTD/svg11.dtd">
<svg width="100%" height="100%" viewBox="0 0 186 130" version="1.1" xmlns="http://www.w3.org/2000/svg" xmlns:xlink="http://www.w3.org/1999/xlink" xml:space="preserve" xmlns:serif="http://www.serif.com/" style="fill-rule:evenodd;clip-rule:evenodd;stroke-linejoin:round;stroke-miterlimit:2;">
    <g transform="matrix(3.2421,0,0,3.40143,-21.9001,-622.503)">
        <g id="Layer1">
            <g id="Rotation-Lock" serif:id="Rotation Lock">
                <g>
                    <path d="M48.691,208.371L52.865,201.144L49.939,201.238C49.542,192.756 42.548,186 33.979,186C25.154,186 18.001,193.164 18.001,202C18.001,210.837 25.154,218 33.979,218C38.287,218 42.197,216.293 45.071,213.517C45.465,213.137 45.513,212.522 45.16,212.103L44.976,211.885C44.615,211.457 43.961,211.407 43.561,211.799C41.091,214.222 37.709,215.715 33.979,215.715C26.415,215.715 20.283,209.574 20.283,202C20.283,194.426 26.415,188.286 33.979,188.286C41.287,188.286 47.259,194.018 47.653,201.238L44.518,201.144L48.691,208.371Z"/>
                </g>
            </g>
        </g>
    </g>
</svg>
