<?xml version="1.0" encoding="UTF-8" standalone="no"?>
<!DOCTYPE svg PUBLIC "-//W3C//DTD SVG 1.1//EN" "http://www.w3.org/Graphics/SVG/1.1/DTD/svg11.dtd">
<svg width="100%" height="100%" viewBox="0 0 186 130" version="1.1" xmlns="http://www.w3.org/2000/svg" xmlns:xlink="http://www.w3.org/1999/xlink" xml:space="preserve" xmlns:serif="http://www.serif.com/" style="fill-rule:evenodd;clip-rule:evenodd;stroke-linejoin:round;stroke-miterlimit:2;">
    <g transform="matrix(3.99992,0,0,3.99992,-1054,-1416.39)">
        <g id="Take-Copy" serif:id="Take Copy">
            <g id="Camera">
                <path d="M282.866,358L291.134,358C291.701,358 292.445,358.369 292.794,358.824L295.066,362.174C295.288,362.5 295.657,362.698 296.051,362.698L300.937,362.698C302.077,362.698 302.999,363.628 302.999,364.781L302.999,379.917C302.999,381.068 302.077,382.001 300.937,382.001L273.063,382.001C271.923,382.001 271,381.07 271,379.917L271,364.781C271,363.63 271.923,362.698 273.063,362.698L277.969,362.698C278.35,362.698 278.707,362.508 278.923,362.192L281.205,358.824C281.555,358.37 282.302,358 282.866,358ZM294.742,365.306C294.742,365.882 295.204,366.349 295.774,366.349C296.345,366.349 296.806,365.882 296.806,365.306C296.806,364.73 296.345,364.262 295.774,364.262C295.204,364.262 294.742,364.73 294.742,365.306ZM279.774,372.088C279.774,376.122 283.009,379.392 287,379.392C290.991,379.392 294.225,376.122 294.225,372.088C294.225,368.053 290.991,364.784 287,364.784C283.009,364.784 279.774,368.053 279.774,372.088ZM274.096,359.044L276.162,359.044C276.732,359.044 277.193,359.508 277.193,360.088L277.193,361.131L273.064,361.131L273.064,360.088C273.064,359.511 273.523,359.044 274.096,359.044ZM281.323,372.088C281.323,368.917 283.864,366.349 287,366.349C290.136,366.349 292.677,368.917 292.677,372.088C292.677,375.258 290.136,377.827 287,377.827C283.864,377.827 281.323,375.258 281.323,372.088Z"/>
            </g>
        </g>
    </g>
</svg>
